<?xml version="1.0" encoding="utf-8"?>
<!-- Generator: Adobe Illustrator 23.0.2, SVG Export Plug-In . SVG Version: 6.00 Build 0)  -->
<svg version="1.1" id="Layer_1" xmlns="http://www.w3.org/2000/svg" xmlns:xlink="http://www.w3.org/1999/xlink" x="0px" y="0px"
	 viewBox="0 0 250 150" style="enable-background:new 0 0 250 150;" xml:space="preserve">
<style type="text/css">
	.st0{fill:#FFFFFF;}
	.st1{fill:#662D91;}
	.st2{font-family:'SegoeUI-Semibold';}
	.st3{font-size:30px;}
</style>
<g>
	<rect x="0.13" y="0.13" class="st0" width="249.75" height="149.75"/>
	<path d="M249.75,0.25v149.5H0.25V0.25H249.75 M250,0H0v150h250V0L250,0z"/>
</g>
<g>
	<rect x="45" y="74.41" class="st0" width="18.04" height="14.59"/>
	<path class="st1" d="M61.04,76.41V87H47V76.41H61.04 M65.04,72.41H43V91h22.04V72.41L65.04,72.41z"/>
</g>
<g>
	<rect x="53.52" y="64" class="st1" width="21.48" height="18"/>
</g>
<g>
	<line class="st1" x1="53.38" y1="82.47" x2="68" y2="69"/>
	<g>
		<g>
			<polygon class="st0" points="53.65,82.76 64.08,73.15 66.04,75.28 68,69 61.58,70.44 63.54,72.57 53.11,82.18 			"/>
		</g>
	</g>
</g>
<text transform="matrix(1 0 0 1 91.0908 84.3184)" class="st1 st2 st3">CentEdge</text>
</svg>
